<svg width="285" height="50" viewBox="0 0 285 50" fill="none" xmlns="http://www.w3.org/2000/svg">
<g filter="url(#filter0_ddd_2803_9501)">
<rect x="2" y="2" width="280.732" height="44" rx="12" fill="white"/>
<g clip-path="url(#clip0_2803_9501)">
<path fill-rule="evenodd" clip-rule="evenodd" d="M29.5696 34.9972L29.5703 34.9963C29.5679 34.9951 29.5658 34.994 29.5635 34.9925C29.5567 34.9881 29.5492 34.9844 29.5422 34.9804C28.9204 34.6376 27.8879 33.629 27.8222 33.5789C27.8215 33.578 27.8208 33.5773 27.8201 33.5766L27.8194 33.577C27.771 33.5406 27.7191 33.508 27.6594 33.4851C27.3155 33.3528 26.9252 33.5179 26.7895 33.8537C26.7147 34.0387 26.735 34.2365 26.8244 34.3995L26.8328 34.4315C27.6641 35.5269 28.9838 36.0715 28.9838 36.0715C29.3062 36.1955 29.6718 36.0407 29.799 35.7261C29.9082 35.456 29.8051 35.1553 29.5696 34.9972Z" fill="#E82227"/>
<path fill-rule="evenodd" clip-rule="evenodd" d="M24.3782 14.6676C28.3502 12.5716 32.3245 12.7388 36.2965 14.6683C36.7381 14.8828 37.1908 15.0315 37.4518 14.4766C37.6805 13.9904 37.3393 13.7252 36.9237 13.515C34.8167 12.4491 32.5853 11.8801 30.2063 11.8862C27.9141 11.8675 25.7753 12.4266 23.7746 13.5075C23.3516 13.7357 22.9529 14.0112 23.2705 14.5435C23.5513 15.0142 23.9701 14.8828 24.3782 14.6676Z" fill="black"/>
<path fill-rule="evenodd" clip-rule="evenodd" d="M23.0906 32.145C22.7209 32.145 22.4199 32.4385 22.4199 32.7993C22.4199 33.1599 22.7209 33.4534 23.0906 33.4534C23.4606 33.4534 23.7613 33.1599 23.7613 32.7993C23.7613 32.4385 23.4606 32.145 23.0906 32.145Z" fill="black"/>
<path fill-rule="evenodd" clip-rule="evenodd" d="M31.8202 21.1473C31.8202 20.7866 31.5194 20.4932 31.1495 20.4932C30.7797 20.4932 30.479 20.7866 30.479 21.1473C30.479 21.5079 30.7797 21.8013 31.1495 21.8013C31.5194 21.8013 31.8202 21.5079 31.8202 21.1473Z" fill="black"/>
<path fill-rule="evenodd" clip-rule="evenodd" d="M39.0266 30.6523C38.6567 30.6523 38.356 30.9458 38.356 31.3064C38.356 31.667 38.6567 31.9605 39.0266 31.9605C39.3964 31.9605 39.6971 31.667 39.6971 31.3064C39.6971 30.9458 39.3964 30.6523 39.0266 30.6523Z" fill="black"/>
<path fill-rule="evenodd" clip-rule="evenodd" d="M33.981 27.9976C33.611 27.9976 33.3105 28.291 33.3105 28.6516C33.3105 29.0122 33.611 29.3057 33.981 29.3057C34.3507 29.3057 34.6517 29.0122 34.6517 28.6516C34.6517 28.291 34.3507 27.9976 33.981 27.9976Z" fill="black"/>
<path fill-rule="evenodd" clip-rule="evenodd" d="M33.981 27.9976C33.611 27.9976 33.3105 28.291 33.3105 28.6516C33.3105 29.0122 33.611 29.3057 33.981 29.3057C34.3507 29.3057 34.6517 29.0122 34.6517 28.6516C34.6517 28.291 34.3507 27.9976 33.981 27.9976Z" fill="black"/>
<path fill-rule="evenodd" clip-rule="evenodd" d="M42.0618 23.6953C41.6918 23.6953 41.3911 23.9888 41.3911 24.3494C41.3911 24.7102 41.6918 25.0035 42.0618 25.0035C42.4315 25.0035 42.7325 24.7102 42.7325 24.3494C42.7325 23.9888 42.4315 23.6953 42.0618 23.6953Z" fill="black"/>
<path fill-rule="evenodd" clip-rule="evenodd" d="M41.7381 22.2068C41.7381 21.8462 41.4374 21.5527 41.0674 21.5527C40.6977 21.5527 40.397 21.8462 40.397 22.2068C40.397 22.5677 40.6977 22.8609 41.0674 22.8609C41.4374 22.8609 41.7381 22.5677 41.7381 22.2068Z" fill="black"/>
<path fill-rule="evenodd" clip-rule="evenodd" d="M21.7366 16.545C22.1063 16.545 22.4073 16.2517 22.4073 15.8909C22.4073 15.5303 22.1063 15.2368 21.7366 15.2368C21.3669 15.2368 21.0659 15.5303 21.0659 15.8909C21.0659 16.2517 21.3669 16.545 21.7366 16.545Z" fill="black"/>
<path fill-rule="evenodd" clip-rule="evenodd" d="M19.2546 22.2939C19.0042 22.2939 18.7879 22.4303 18.6728 22.6291L18.6705 22.6279C18.6679 22.6344 18.6653 22.6407 18.6627 22.6473C18.6391 22.691 18.6202 22.7371 18.6073 22.786C18.0358 24.2663 18 25.8027 18 25.8027C18 26.1635 18.3007 26.4568 18.6705 26.4568C18.9873 26.4568 19.252 26.2407 19.3217 25.9521L19.3229 25.9519C19.3229 25.9505 19.3229 25.9493 19.3231 25.9481C19.3339 25.9014 19.3411 25.853 19.3411 25.8027C19.3411 25.78 19.3365 25.7582 19.3341 25.736C19.4235 24.2667 19.8708 23.2057 19.8708 23.2057V23.2055C19.9057 23.1265 19.9253 23.0395 19.9253 22.948C19.9253 22.5874 19.6243 22.2939 19.2546 22.2939Z" fill="black"/>
<path fill-rule="evenodd" clip-rule="evenodd" d="M26.9819 18.2332C21.4714 20.3788 20.0496 25.5124 21.5469 30.5322C21.5551 30.5762 21.5678 30.6185 21.5844 30.659C21.6842 30.898 21.9244 31.0673 22.2052 31.0673C22.2455 31.0673 22.2845 31.0624 22.3229 31.0558C22.404 31.0418 22.4796 31.0123 22.5478 30.9726C22.7433 30.8582 22.8757 30.6515 22.8757 30.4132C22.8757 30.3706 22.8708 30.329 22.8628 30.2883C22.8605 30.2773 22.8568 30.2673 22.854 30.2563C22.7216 29.7825 22.5946 29.3069 22.498 28.8261C21.4267 23.4979 25.0166 18.9278 30.2844 18.9278C35.1228 18.9278 38.3764 21.8757 38.3764 26.3107C38.3764 28.0754 37.6557 28.9547 36.377 28.9285C36.3749 28.9285 36.373 28.9278 36.3709 28.9278C36.3693 28.9278 36.3676 28.9282 36.3657 28.9282C36.341 28.9278 36.3159 28.9292 36.2914 28.9278C36.2883 28.9306 36.2865 28.9336 36.2834 28.9364C35.9553 28.9788 35.7004 29.2507 35.7004 29.5819C35.7004 29.8831 35.9107 30.134 36.1948 30.21C36.2032 30.2135 36.2123 30.2168 36.2282 30.221C36.2289 30.221 36.2313 30.2212 36.2322 30.2217C36.2376 30.2226 36.2434 30.2231 36.2488 30.224C36.2629 30.2259 36.2797 30.2275 36.3005 30.2292C36.3239 30.2313 36.3468 30.236 36.3709 30.236C36.3795 30.236 36.3875 30.2338 36.3961 30.2336C36.5315 30.2376 36.6929 30.236 36.6929 30.236C38.7929 30.0737 39.5476 28.367 39.5476 25.9017C39.5476 19.7556 32.836 15.9538 26.9819 18.2332Z" fill="black"/>
<path fill-rule="evenodd" clip-rule="evenodd" d="M27.2944 16.4797C27.3223 16.4751 27.3473 16.4647 27.3744 16.458C27.3465 16.4651 27.3194 16.4726 27.2915 16.4801C27.2923 16.4797 27.2932 16.4797 27.2944 16.4797Z" fill="#00AEEF"/>
<path fill-rule="evenodd" clip-rule="evenodd" d="M27.8245 15.7146C27.8224 15.7039 27.8187 15.6938 27.8161 15.6833C27.7445 15.4029 27.4866 15.1938 27.1774 15.1938C27.137 15.1938 27.0977 15.1988 27.0593 15.2055C27.0088 15.2198 26.9602 15.2352 26.9106 15.25C25.8342 15.5711 24.942 16.0088 24.0267 16.5446C22.7653 17.2831 21.7612 18.1165 20.7016 19.4465C20.5503 19.6364 20.2802 19.8859 20.1018 20.1539C20.012 20.2521 19.9535 20.3765 19.9376 20.514C19.9006 20.6931 19.943 20.8723 20.1193 21.0404C20.1256 21.047 20.1326 21.0528 20.1392 21.0591C20.1628 21.0804 20.1883 21.1014 20.2166 21.1225C20.2196 21.1248 20.2227 21.1265 20.2257 21.1288C20.2257 21.1288 20.2259 21.1288 20.2259 21.129C20.9389 21.6433 21.3917 20.6714 21.7095 20.2703C23.3808 18.1621 24.9958 17.0633 27.2913 16.47C27.307 16.466 27.3222 16.4616 27.3381 16.4576C27.4005 16.4419 27.4604 16.4195 27.5147 16.3879C27.7071 16.2754 27.8374 16.0722 27.8374 15.8376C27.8374 15.7956 27.8325 15.7546 27.8245 15.7146Z" fill="black"/>
<path fill-rule="evenodd" clip-rule="evenodd" d="M40.1989 19.6907C40.1671 19.6337 40.129 19.5806 40.0818 19.5354C37.6408 16.4217 34.3793 14.9154 30.4707 14.8359C30.2974 14.8383 29.8594 14.8359 29.8084 14.8359C29.4387 14.8359 29.1377 15.1294 29.1377 15.49C29.1377 15.8509 29.4387 16.1441 29.8084 16.1441C33.2481 15.9654 36.7131 17.355 39.0556 20.3565L39.0561 20.357C39.0636 20.3684 39.0729 20.3785 39.0811 20.3892C39.2032 20.548 39.3957 20.6523 39.6143 20.6523C39.9831 20.6523 40.2827 20.3598 40.2827 20.0003C40.2827 19.8879 40.2506 19.7831 40.1989 19.6907Z" fill="black"/>
<path fill-rule="evenodd" clip-rule="evenodd" d="M36.7901 26.3127C36.7799 26.1067 36.7509 25.9005 36.713 25.6972C36.397 24.0042 35.4195 22.4726 34.1114 21.5234C34.2231 21.6132 34.3059 21.7367 34.3419 21.8782C34.3445 21.8894 34.3487 21.8997 34.3511 21.9109C34.359 21.9521 34.3639 21.9947 34.3639 22.0381C34.3639 22.2809 34.2292 22.4914 34.0302 22.6076C33.9605 22.6483 33.8836 22.6782 33.8008 22.6925C33.762 22.6993 33.7222 22.7042 33.6813 22.7042C33.5452 22.7042 33.4194 22.6644 33.313 22.5973C34.3861 23.4836 35.293 24.9522 35.4532 26.4313C35.5047 26.9058 35.5535 27.3906 36.1571 27.3712C36.8423 27.3494 36.8142 26.7987 36.7901 26.3127Z" fill="black"/>
<path fill-rule="evenodd" clip-rule="evenodd" d="M33.8011 22.6924C33.8839 22.6779 33.9606 22.6482 34.0303 22.6075C34.2295 22.4913 34.3642 22.2808 34.3642 22.0381C34.3642 21.9946 34.3593 21.952 34.3511 21.9106C34.3488 21.8996 34.3448 21.8894 34.3423 21.8781C34.306 21.7366 34.2235 21.6132 34.1114 21.5234C34.1028 21.5171 34.0941 21.5105 34.0855 21.5044C33.9725 21.4219 33.8334 21.3721 33.6814 21.3721C33.3049 21.3721 32.9985 21.6707 32.9985 22.0381C32.9985 22.0797 33.0034 22.1199 33.0112 22.1592C33.0196 22.2039 33.0322 22.2469 33.0493 22.2881C33.083 22.3685 33.1332 22.4403 33.1943 22.5016C33.2343 22.5324 33.2738 22.5645 33.3131 22.5972C33.4195 22.6643 33.5455 22.7041 33.6814 22.7041C33.7225 22.7041 33.7621 22.6992 33.8011 22.6924Z" fill="black"/>
<path fill-rule="evenodd" clip-rule="evenodd" d="M34.0854 21.5044C34.1009 21.5156 34.1163 21.5269 34.1317 21.5381C34.1167 21.5261 34.1009 21.5156 34.0854 21.5044Z" fill="#00AEEF"/>
<path fill-rule="evenodd" clip-rule="evenodd" d="M33.406 22.6719C33.3356 22.6135 33.2652 22.5565 33.1943 22.5015C33.2585 22.5656 33.3285 22.6231 33.406 22.6719Z" fill="#00AEEF"/>
<path fill-rule="evenodd" clip-rule="evenodd" d="M31.0035 23.3523C31.0014 23.3519 31.0001 23.3515 30.998 23.3511C31.0001 23.3519 31.0022 23.3523 31.0043 23.3532L31.0035 23.3523Z" fill="black"/>
<path fill-rule="evenodd" clip-rule="evenodd" d="M33.7028 34.0639C33.3326 33.9335 32.9474 33.8313 32.5962 33.6627C29.7631 32.3021 28.2388 30.0761 28.0927 26.9999C28.0274 25.6247 28.9392 24.6595 30.2137 24.6104L30.2322 24.6041C30.3096 24.5917 30.3825 24.5662 30.449 24.5305C30.654 24.4203 30.7948 24.2101 30.7948 23.9662C30.7948 23.7239 30.6559 23.5148 30.4532 23.404C30.3636 23.3553 30.2628 23.3254 30.1543 23.3217C30.1466 23.3214 30.1393 23.3193 30.1316 23.3193C30.1166 23.3193 30.1024 23.3228 30.0877 23.3238C28.3819 23.4309 27.0083 24.653 26.7842 26.3127C26.2801 30.051 29.5294 34.5291 33.2877 35.2793C33.7159 35.3649 34.1031 35.342 34.2348 34.8609C34.3506 34.4386 34.0877 34.1996 33.7028 34.0639Z" fill="black"/>
<path fill-rule="evenodd" clip-rule="evenodd" d="M33.7224 26.1093C33.7161 26.0581 33.703 26.0095 33.6854 25.9625C33.5613 25.4847 33.3686 24.9253 33.0922 24.5463C33.0716 24.5137 33.048 24.4833 33.022 24.4548C33.0176 24.4494 33.0136 24.4431 33.0091 24.438C33.0082 24.4368 33.0066 24.4363 33.0054 24.4352C32.8833 24.3108 32.7124 24.2324 32.5223 24.2324C32.1523 24.2324 31.8516 24.5259 31.8516 24.8865C31.8516 24.9553 31.8654 25.02 31.8857 25.0822L31.8831 25.0848C31.8831 25.0848 31.8871 25.0932 31.8939 25.1084C31.9023 25.1311 31.9121 25.1529 31.9229 25.1741C31.9926 25.3355 32.1465 25.7153 32.3275 26.3025C32.3373 26.3628 32.3543 26.4206 32.3794 26.4744C32.4902 26.7138 32.7358 26.8813 33.022 26.8813C33.1452 26.8813 33.2591 26.8478 33.3599 26.7936C33.5783 26.6764 33.7282 26.4524 33.7282 26.1923C33.7282 26.1643 33.7259 26.1367 33.7224 26.1093Z" fill="black"/>
<path fill-rule="evenodd" clip-rule="evenodd" d="M26.5176 31.7729C26.5417 31.8134 26.5642 31.8542 26.5884 31.8946C26.5672 31.8525 26.5438 31.8121 26.5176 31.7729Z" fill="#E82227"/>
<path fill-rule="evenodd" clip-rule="evenodd" d="M25.3413 32.394C25.3726 32.4628 25.4105 32.5278 25.4546 32.5886C25.4296 32.5457 25.4051 32.5024 25.3826 32.4628C25.3792 32.457 25.363 32.4303 25.3413 32.394Z" fill="#E82227"/>
<path fill-rule="evenodd" clip-rule="evenodd" d="M28.7139 20.6743C28.6066 20.6743 28.4134 20.7452 28.4118 20.7452C25.6458 21.5552 23.7787 24.0479 23.8075 27.0709C23.8633 28.9618 24.694 31.2613 25.2442 32.2229C25.2697 32.2741 25.3142 32.349 25.3415 32.3943C25.3537 32.4147 25.3628 32.4294 25.3649 32.4327C25.3773 32.4551 25.3911 32.4792 25.4051 32.5035C25.5267 32.6721 25.7274 32.7835 25.9545 32.7835C26.0716 32.7835 26.1804 32.7514 26.2765 32.6997C26.4846 32.5882 26.6273 32.3749 26.6273 32.127C26.6273 32.0239 26.6013 31.9278 26.5573 31.841C26.5438 31.8183 26.5311 31.7954 26.5176 31.7727C25.5829 30.2139 25.1086 28.4934 25.1689 26.5875C25.2391 24.369 26.82 22.5734 28.8423 21.9699C28.8825 21.9624 28.9211 21.9505 28.9585 21.936C29.0184 21.9196 29.1957 21.808 29.2127 21.7613C29.3184 21.6457 29.3844 21.4951 29.3844 21.3284C29.3844 20.9678 29.0836 20.6743 28.7139 20.6743Z" fill="#00AC75"/>
<path fill-rule="evenodd" clip-rule="evenodd" d="M36.8805 31.7033C36.7893 31.6535 36.6868 31.6231 36.5762 31.6196H36.576C36.5381 31.6234 36.5004 31.6257 36.4628 31.629C33.589 31.8729 31.2542 29.9906 31.0051 27.1883C30.9621 26.7021 30.9778 26.1341 30.2942 26.1837C29.664 26.2298 29.6586 26.8483 29.6911 27.338C29.9009 30.5027 32.6281 32.9491 35.9343 32.9837C36.1492 32.9837 36.3669 32.9629 36.5846 32.9329C36.6274 32.9271 36.6702 32.9212 36.7132 32.9145C36.7705 32.9 36.8253 32.8787 36.8762 32.8511C37.0853 32.7391 37.2287 32.5246 37.2287 32.2758C37.2287 32.0291 37.0872 31.816 36.8805 31.7033Z" fill="black"/>
</g>
<path d="M58.1931 30.7319C54.343 30.7319 51.9123 28.0786 51.9123 23.8018V23.7925C51.9123 19.5156 54.3523 16.8809 58.1931 16.8809C61.2732 16.8809 63.5369 18.8013 63.8894 21.5288L63.8987 21.6216H61.5515L61.5051 21.4453C61.1155 19.9146 59.9372 18.959 58.1931 18.959C55.8552 18.959 54.3616 20.8237 54.3616 23.7925V23.8018C54.3616 26.7798 55.8645 28.6538 58.1931 28.6538C59.9001 28.6538 61.0969 27.7354 61.533 26.084L61.5608 25.9912H63.908L63.8894 26.084C63.5461 28.8301 61.2732 30.7319 58.1931 30.7319ZM70.2255 30.6948C67.3309 30.6948 65.4662 28.7651 65.4662 25.583V25.5645C65.4662 22.4102 67.3588 20.4619 70.2162 20.4619C73.0829 20.4619 74.9847 22.3916 74.9847 25.5645V25.583C74.9847 28.7744 73.1107 30.6948 70.2255 30.6948ZM70.2347 28.8301C71.6913 28.8301 72.6283 27.6426 72.6283 25.583V25.5645C72.6283 23.5142 71.682 22.3359 70.2162 22.3359C68.7782 22.3359 67.8226 23.5234 67.8226 25.5645V25.583C67.8226 27.6519 68.7596 28.8301 70.2347 28.8301ZM76.8491 30.5V20.666H79.1592V22.2061H79.2055C79.7158 21.1484 80.7178 20.4619 82.2114 20.4619C84.373 20.4619 85.6069 21.8535 85.6069 24.1357V30.5H83.2969V24.5996C83.2969 23.1987 82.6474 22.4102 81.3301 22.4102C80.0034 22.4102 79.1592 23.375 79.1592 24.7944V30.5H76.8491ZM91.4977 30.6948C89.4381 30.6948 88.464 29.8599 88.464 27.8374V22.4473H87.0724V20.666H88.464V18.1704H90.8111V20.666H92.6388V22.4473H90.8111V27.6426C90.8111 28.6074 91.2379 28.9136 92.0821 28.9136C92.3048 28.9136 92.4811 28.8857 92.6388 28.8765V30.6113C92.3697 30.6484 91.9615 30.6948 91.4977 30.6948ZM95.8298 19.2559C95.1062 19.2559 94.5403 18.6807 94.5403 17.9941C94.5403 17.2891 95.1062 16.7231 95.8298 16.7231C96.5534 16.7231 97.1101 17.2891 97.1101 17.9941C97.1101 18.6807 96.5534 19.2559 95.8298 19.2559ZM94.6701 30.5V20.666H96.9802V30.5H94.6701ZM99.327 30.5V20.666H101.637V22.2061H101.683C102.194 21.1484 103.196 20.4619 104.689 20.4619C106.851 20.4619 108.085 21.8535 108.085 24.1357V30.5H105.775V24.5996C105.775 23.1987 105.125 22.4102 103.808 22.4102C102.481 22.4102 101.637 23.375 101.637 24.7944V30.5H99.327ZM113.669 30.6948C111.508 30.6948 110.274 29.3032 110.274 27.021V20.666H112.584V26.5664C112.584 27.958 113.233 28.7466 114.551 28.7466C115.877 28.7466 116.722 27.791 116.722 26.3623V20.666H119.032V30.5H116.722V28.96H116.675C116.165 30.0083 115.154 30.6948 113.669 30.6948ZM125.637 30.6948C122.687 30.6948 120.905 28.7373 120.905 25.6108V25.6016C120.905 22.5029 122.714 20.4619 125.525 20.4619C128.337 20.4619 130.081 22.438 130.081 25.4067V26.1489H123.197C123.234 27.8745 124.18 28.895 125.683 28.895C126.834 28.895 127.585 28.2827 127.808 27.624L127.826 27.5591H129.988L129.96 27.6611C129.654 29.1733 128.207 30.6948 125.637 30.6948ZM125.553 22.271C124.329 22.271 123.41 23.0967 123.225 24.6089H127.836C127.669 23.0503 126.778 22.271 125.553 22.271ZM138.058 30.5L135.396 20.666H137.715L139.376 28.2178H139.422L141.343 20.666H143.56L145.48 28.2178H145.536L147.197 20.666H149.479L146.816 30.5H144.386L142.447 23.3101H142.4L140.471 30.5H138.058ZM152.234 19.2559C151.51 19.2559 150.944 18.6807 150.944 17.9941C150.944 17.2891 151.51 16.7231 152.234 16.7231C152.957 16.7231 153.514 17.2891 153.514 17.9941C153.514 18.6807 152.957 19.2559 152.234 19.2559ZM151.074 30.5V20.666H153.384V30.5H151.074ZM159.386 30.6948C157.327 30.6948 156.353 29.8599 156.353 27.8374V22.4473H154.961V20.666H156.353V18.1704H158.7V20.666H160.527V22.4473H158.7V27.6426C158.7 28.6074 159.127 28.9136 159.971 28.9136C160.193 28.9136 160.37 28.8857 160.527 28.8765V30.6113C160.258 30.6484 159.85 30.6948 159.386 30.6948ZM162.559 30.5V17.1128H164.869V22.3174H164.924C165.435 21.1392 166.483 20.4619 167.958 20.4619C170.073 20.4619 171.428 22.002 171.428 24.377V30.5H169.118V24.8315C169.118 23.3193 168.357 22.4102 167.03 22.4102C165.722 22.4102 164.869 23.4028 164.869 24.8315V30.5H162.559ZM183.599 30.7319C180.204 30.7319 178.088 28.7373 178.088 25.7778V17.1128H180.482V25.583C180.482 27.4385 181.614 28.6538 183.599 28.6538C185.584 28.6538 186.707 27.4385 186.707 25.583V17.1128H189.091V25.7778C189.091 28.7373 187.004 30.7319 183.599 30.7319ZM190.603 30.5L195.39 17.1128H198.081L202.868 30.5H200.354L199.222 27.0396H194.24L193.108 30.5H190.603ZM196.708 19.4971L194.843 25.1934H198.619L196.763 19.4971H196.708ZM204.676 30.5V17.1128H213.341V19.126H207.07V22.7349H212.998V24.6738H207.07V28.4868H213.341V30.5H204.676ZM219.983 30.5V17.1128H225.142C227.85 17.1128 229.697 18.9033 229.697 21.5845V21.603C229.697 24.2749 227.85 26.0747 225.142 26.0747H222.377V30.5H219.983ZM224.548 19.0703H222.377V24.145H224.548C226.264 24.145 227.266 23.2173 227.266 21.6123V21.5938C227.266 19.9888 226.264 19.0703 224.548 19.0703ZM229.733 30.5L234.521 17.1128H237.211L241.998 30.5H239.484L238.352 27.0396H233.37L232.238 30.5H229.733ZM235.838 19.4971L233.973 25.1934H237.749L235.894 19.4971H235.838ZM248.325 30.7319C245.254 30.7319 243.232 29.2847 243.074 26.8818L243.065 26.7427H245.356L245.375 26.854C245.551 28.0044 246.729 28.7188 248.408 28.7188C250.097 28.7188 251.154 27.9673 251.154 26.8169V26.8076C251.154 25.8057 250.459 25.2676 248.733 24.9058L247.295 24.6089C244.66 24.0615 243.361 22.8369 243.361 20.8423V20.833C243.371 18.4766 245.44 16.8809 248.325 16.8809C251.247 16.8809 253.158 18.4209 253.298 20.7124L253.307 20.8701H251.015L250.997 20.7588C250.839 19.5898 249.809 18.894 248.306 18.894C246.738 18.9033 245.764 19.6362 245.764 20.7031V20.7124C245.764 21.6587 246.497 22.2153 248.111 22.5493L249.559 22.8462C252.342 23.4214 253.557 24.5532 253.557 26.6406V26.6499C253.557 29.1455 251.59 30.7319 248.325 30.7319ZM260.431 30.7319C257.361 30.7319 255.338 29.2847 255.18 26.8818L255.171 26.7427H257.463L257.481 26.854C257.657 28.0044 258.836 28.7188 260.515 28.7188C262.203 28.7188 263.261 27.9673 263.261 26.8169V26.8076C263.261 25.8057 262.565 25.2676 260.84 24.9058L259.402 24.6089C256.767 24.0615 255.468 22.8369 255.468 20.8423V20.833C255.477 18.4766 257.546 16.8809 260.431 16.8809C263.354 16.8809 265.265 18.4209 265.404 20.7124L265.413 20.8701H263.122L263.103 20.7588C262.946 19.5898 261.916 18.894 260.413 18.894C258.845 18.9033 257.871 19.6362 257.871 20.7031V20.7124C257.871 21.6587 258.604 22.2153 260.218 22.5493L261.665 22.8462C264.448 23.4214 265.664 24.5532 265.664 26.6406V26.6499C265.664 29.1455 263.697 30.7319 260.431 30.7319Z" fill="black"/>
</g>
<defs>
<filter id="filter0_ddd_2803_9501" x="0" y="0" width="284.732" height="50" filterUnits="userSpaceOnUse" color-interpolation-filters="sRGB">
<feFlood flood-opacity="0" result="BackgroundImageFix"/>
<feColorMatrix in="SourceAlpha" type="matrix" values="0 0 0 0 0 0 0 0 0 0 0 0 0 0 0 0 0 0 127 0" result="hardAlpha"/>
<feMorphology radius="2" operator="dilate" in="SourceAlpha" result="effect1_dropShadow_2803_9501"/>
<feOffset/>
<feComposite in2="hardAlpha" operator="out"/>
<feColorMatrix type="matrix" values="0 0 0 0 0 0 0 0 0 0.67451 0 0 0 0 0.458824 0 0 0 0.3 0"/>
<feBlend mode="normal" in2="BackgroundImageFix" result="effect1_dropShadow_2803_9501"/>
<feColorMatrix in="SourceAlpha" type="matrix" values="0 0 0 0 0 0 0 0 0 0 0 0 0 0 0 0 0 0 127 0" result="hardAlpha"/>
<feOffset dy="2"/>
<feGaussianBlur stdDeviation="1"/>
<feColorMatrix type="matrix" values="0 0 0 0 0 0 0 0 0 0 0 0 0 0 0 0 0 0 0.12 0"/>
<feBlend mode="normal" in2="effect1_dropShadow_2803_9501" result="effect2_dropShadow_2803_9501"/>
<feColorMatrix in="SourceAlpha" type="matrix" values="0 0 0 0 0 0 0 0 0 0 0 0 0 0 0 0 0 0 127 0" result="hardAlpha"/>
<feOffset/>
<feGaussianBlur stdDeviation="1"/>
<feColorMatrix type="matrix" values="0 0 0 0 0 0 0 0 0 0 0 0 0 0 0 0 0 0 0.12 0"/>
<feBlend mode="normal" in2="effect2_dropShadow_2803_9501" result="effect3_dropShadow_2803_9501"/>
<feBlend mode="normal" in="SourceGraphic" in2="effect3_dropShadow_2803_9501" result="shape"/>
</filter>
<clipPath id="clip0_2803_9501">
<rect width="24.7325" height="24.2285" fill="white" transform="translate(18 11.8857)"/>
</clipPath>
</defs>
</svg>
