<svg width="253" height="50" viewBox="0 0 253 50" fill="none" xmlns="http://www.w3.org/2000/svg">
<g filter="url(#filter0_ddd_2803_9908)">
<rect x="2" y="2" width="248.732" height="44" rx="12" fill="white"/>
<g clip-path="url(#clip0_2803_9908)">
<path fill-rule="evenodd" clip-rule="evenodd" d="M29.5696 34.9972L29.5703 34.9963C29.5679 34.9951 29.5658 34.994 29.5635 34.9925C29.5567 34.9881 29.5492 34.9844 29.5422 34.9804C28.9204 34.6376 27.8879 33.629 27.8222 33.5789C27.8215 33.578 27.8208 33.5773 27.8201 33.5766L27.8194 33.577C27.771 33.5406 27.7191 33.508 27.6594 33.4851C27.3155 33.3528 26.9252 33.5179 26.7895 33.8537C26.7147 34.0387 26.735 34.2365 26.8244 34.3995L26.8328 34.4315C27.6641 35.5269 28.9838 36.0715 28.9838 36.0715C29.3062 36.1955 29.6718 36.0407 29.799 35.7261C29.9082 35.456 29.8051 35.1553 29.5696 34.9972Z" fill="#E82227"/>
<path fill-rule="evenodd" clip-rule="evenodd" d="M24.3782 14.6676C28.3502 12.5716 32.3245 12.7388 36.2965 14.6683C36.7381 14.8828 37.1908 15.0315 37.4518 14.4766C37.6805 13.9904 37.3393 13.7252 36.9237 13.515C34.8167 12.4491 32.5853 11.8801 30.2063 11.8862C27.9141 11.8675 25.7753 12.4266 23.7746 13.5075C23.3516 13.7357 22.9529 14.0112 23.2705 14.5435C23.5513 15.0142 23.9701 14.8828 24.3782 14.6676Z" fill="black"/>
<path fill-rule="evenodd" clip-rule="evenodd" d="M23.0906 32.145C22.7209 32.145 22.4199 32.4385 22.4199 32.7993C22.4199 33.1599 22.7209 33.4534 23.0906 33.4534C23.4606 33.4534 23.7613 33.1599 23.7613 32.7993C23.7613 32.4385 23.4606 32.145 23.0906 32.145Z" fill="black"/>
<path fill-rule="evenodd" clip-rule="evenodd" d="M31.8202 21.1473C31.8202 20.7866 31.5194 20.4932 31.1495 20.4932C30.7797 20.4932 30.479 20.7866 30.479 21.1473C30.479 21.5079 30.7797 21.8013 31.1495 21.8013C31.5194 21.8013 31.8202 21.5079 31.8202 21.1473Z" fill="black"/>
<path fill-rule="evenodd" clip-rule="evenodd" d="M39.0266 30.6523C38.6567 30.6523 38.356 30.9458 38.356 31.3064C38.356 31.667 38.6567 31.9605 39.0266 31.9605C39.3964 31.9605 39.6971 31.667 39.6971 31.3064C39.6971 30.9458 39.3964 30.6523 39.0266 30.6523Z" fill="black"/>
<path fill-rule="evenodd" clip-rule="evenodd" d="M33.981 27.9976C33.611 27.9976 33.3105 28.291 33.3105 28.6516C33.3105 29.0122 33.611 29.3057 33.981 29.3057C34.3507 29.3057 34.6517 29.0122 34.6517 28.6516C34.6517 28.291 34.3507 27.9976 33.981 27.9976Z" fill="black"/>
<path fill-rule="evenodd" clip-rule="evenodd" d="M33.981 27.9976C33.611 27.9976 33.3105 28.291 33.3105 28.6516C33.3105 29.0122 33.611 29.3057 33.981 29.3057C34.3507 29.3057 34.6517 29.0122 34.6517 28.6516C34.6517 28.291 34.3507 27.9976 33.981 27.9976Z" fill="black"/>
<path fill-rule="evenodd" clip-rule="evenodd" d="M42.0618 23.6953C41.6918 23.6953 41.3911 23.9888 41.3911 24.3494C41.3911 24.7102 41.6918 25.0035 42.0618 25.0035C42.4315 25.0035 42.7325 24.7102 42.7325 24.3494C42.7325 23.9888 42.4315 23.6953 42.0618 23.6953Z" fill="black"/>
<path fill-rule="evenodd" clip-rule="evenodd" d="M41.7381 22.2068C41.7381 21.8462 41.4374 21.5527 41.0674 21.5527C40.6977 21.5527 40.397 21.8462 40.397 22.2068C40.397 22.5677 40.6977 22.8609 41.0674 22.8609C41.4374 22.8609 41.7381 22.5677 41.7381 22.2068Z" fill="black"/>
<path fill-rule="evenodd" clip-rule="evenodd" d="M21.7366 16.545C22.1063 16.545 22.4073 16.2517 22.4073 15.8909C22.4073 15.5303 22.1063 15.2368 21.7366 15.2368C21.3669 15.2368 21.0659 15.5303 21.0659 15.8909C21.0659 16.2517 21.3669 16.545 21.7366 16.545Z" fill="black"/>
<path fill-rule="evenodd" clip-rule="evenodd" d="M19.2546 22.2939C19.0042 22.2939 18.7879 22.4303 18.6728 22.6291L18.6705 22.6279C18.6679 22.6344 18.6653 22.6407 18.6627 22.6473C18.6391 22.691 18.6202 22.7371 18.6073 22.786C18.0358 24.2663 18 25.8027 18 25.8027C18 26.1635 18.3007 26.4568 18.6705 26.4568C18.9873 26.4568 19.252 26.2407 19.3217 25.9521L19.3229 25.9519C19.3229 25.9505 19.3229 25.9493 19.3231 25.9481C19.3339 25.9014 19.3411 25.853 19.3411 25.8027C19.3411 25.78 19.3365 25.7582 19.3341 25.736C19.4235 24.2667 19.8708 23.2057 19.8708 23.2057V23.2055C19.9057 23.1265 19.9253 23.0395 19.9253 22.948C19.9253 22.5874 19.6243 22.2939 19.2546 22.2939Z" fill="black"/>
<path fill-rule="evenodd" clip-rule="evenodd" d="M26.9819 18.2332C21.4714 20.3788 20.0496 25.5124 21.5469 30.5322C21.5551 30.5762 21.5678 30.6185 21.5844 30.659C21.6842 30.898 21.9244 31.0673 22.2052 31.0673C22.2455 31.0673 22.2845 31.0624 22.3229 31.0558C22.404 31.0418 22.4796 31.0123 22.5478 30.9726C22.7433 30.8582 22.8757 30.6515 22.8757 30.4132C22.8757 30.3706 22.8708 30.329 22.8628 30.2883C22.8605 30.2773 22.8568 30.2673 22.854 30.2563C22.7216 29.7825 22.5946 29.3069 22.498 28.8261C21.4267 23.4979 25.0166 18.9278 30.2844 18.9278C35.1228 18.9278 38.3764 21.8757 38.3764 26.3107C38.3764 28.0754 37.6557 28.9547 36.377 28.9285C36.3749 28.9285 36.373 28.9278 36.3709 28.9278C36.3693 28.9278 36.3676 28.9282 36.3657 28.9282C36.341 28.9278 36.3159 28.9292 36.2914 28.9278C36.2883 28.9306 36.2865 28.9336 36.2834 28.9364C35.9553 28.9788 35.7004 29.2507 35.7004 29.5819C35.7004 29.8831 35.9107 30.134 36.1948 30.21C36.2032 30.2135 36.2123 30.2168 36.2282 30.221C36.2289 30.221 36.2313 30.2212 36.2322 30.2217C36.2376 30.2226 36.2434 30.2231 36.2488 30.224C36.2629 30.2259 36.2797 30.2275 36.3005 30.2292C36.3239 30.2313 36.3468 30.236 36.3709 30.236C36.3795 30.236 36.3875 30.2338 36.3961 30.2336C36.5315 30.2376 36.6929 30.236 36.6929 30.236C38.7929 30.0737 39.5476 28.367 39.5476 25.9017C39.5476 19.7556 32.836 15.9538 26.9819 18.2332Z" fill="black"/>
<path fill-rule="evenodd" clip-rule="evenodd" d="M27.2944 16.4797C27.3223 16.4751 27.3473 16.4647 27.3744 16.458C27.3465 16.4651 27.3194 16.4726 27.2915 16.4801C27.2923 16.4797 27.2932 16.4797 27.2944 16.4797Z" fill="#00AEEF"/>
<path fill-rule="evenodd" clip-rule="evenodd" d="M27.8245 15.7146C27.8224 15.7039 27.8187 15.6938 27.8161 15.6833C27.7445 15.4029 27.4866 15.1938 27.1774 15.1938C27.137 15.1938 27.0977 15.1988 27.0593 15.2055C27.0088 15.2198 26.9602 15.2352 26.9106 15.25C25.8342 15.5711 24.942 16.0088 24.0267 16.5446C22.7653 17.2831 21.7612 18.1165 20.7016 19.4465C20.5503 19.6364 20.2802 19.8859 20.1018 20.1539C20.012 20.2521 19.9535 20.3765 19.9376 20.514C19.9006 20.6931 19.943 20.8723 20.1193 21.0404C20.1256 21.047 20.1326 21.0528 20.1392 21.0591C20.1628 21.0804 20.1883 21.1014 20.2166 21.1225C20.2196 21.1248 20.2227 21.1265 20.2257 21.1288C20.2257 21.1288 20.2259 21.1288 20.2259 21.129C20.9389 21.6433 21.3917 20.6714 21.7095 20.2703C23.3808 18.1621 24.9958 17.0633 27.2913 16.47C27.307 16.466 27.3222 16.4616 27.3381 16.4576C27.4005 16.4419 27.4604 16.4195 27.5147 16.3879C27.7071 16.2754 27.8374 16.0722 27.8374 15.8376C27.8374 15.7956 27.8325 15.7546 27.8245 15.7146Z" fill="black"/>
<path fill-rule="evenodd" clip-rule="evenodd" d="M40.1989 19.6907C40.1671 19.6337 40.129 19.5806 40.0818 19.5354C37.6408 16.4217 34.3793 14.9154 30.4707 14.8359C30.2974 14.8383 29.8594 14.8359 29.8084 14.8359C29.4387 14.8359 29.1377 15.1294 29.1377 15.49C29.1377 15.8509 29.4387 16.1441 29.8084 16.1441C33.2481 15.9654 36.7131 17.355 39.0556 20.3565L39.0561 20.357C39.0636 20.3684 39.0729 20.3785 39.0811 20.3892C39.2032 20.548 39.3957 20.6523 39.6143 20.6523C39.9831 20.6523 40.2827 20.3598 40.2827 20.0003C40.2827 19.8879 40.2506 19.7831 40.1989 19.6907Z" fill="black"/>
<path fill-rule="evenodd" clip-rule="evenodd" d="M36.7901 26.3127C36.7799 26.1067 36.7509 25.9005 36.713 25.6972C36.397 24.0042 35.4195 22.4726 34.1114 21.5234C34.2231 21.6132 34.3059 21.7367 34.3419 21.8782C34.3445 21.8894 34.3487 21.8997 34.3511 21.9109C34.359 21.9521 34.3639 21.9947 34.3639 22.0381C34.3639 22.2809 34.2292 22.4914 34.0302 22.6076C33.9605 22.6483 33.8836 22.6782 33.8008 22.6925C33.762 22.6993 33.7222 22.7042 33.6813 22.7042C33.5452 22.7042 33.4194 22.6644 33.313 22.5973C34.3861 23.4836 35.293 24.9522 35.4532 26.4313C35.5047 26.9058 35.5535 27.3906 36.1571 27.3712C36.8423 27.3494 36.8142 26.7987 36.7901 26.3127Z" fill="black"/>
<path fill-rule="evenodd" clip-rule="evenodd" d="M33.8011 22.6924C33.8839 22.6779 33.9606 22.6482 34.0303 22.6075C34.2295 22.4913 34.3642 22.2808 34.3642 22.0381C34.3642 21.9946 34.3593 21.952 34.3511 21.9106C34.3488 21.8996 34.3448 21.8894 34.3423 21.8781C34.306 21.7366 34.2235 21.6132 34.1114 21.5234C34.1028 21.5171 34.0941 21.5105 34.0855 21.5044C33.9725 21.4219 33.8334 21.3721 33.6814 21.3721C33.3049 21.3721 32.9985 21.6707 32.9985 22.0381C32.9985 22.0797 33.0034 22.1199 33.0112 22.1592C33.0196 22.2039 33.0322 22.2469 33.0493 22.2881C33.083 22.3685 33.1332 22.4403 33.1943 22.5016C33.2343 22.5324 33.2738 22.5645 33.3131 22.5972C33.4195 22.6643 33.5455 22.7041 33.6814 22.7041C33.7225 22.7041 33.7621 22.6992 33.8011 22.6924Z" fill="black"/>
<path fill-rule="evenodd" clip-rule="evenodd" d="M34.0854 21.5044C34.1009 21.5156 34.1163 21.5269 34.1317 21.5381C34.1167 21.5261 34.1009 21.5156 34.0854 21.5044Z" fill="#00AEEF"/>
<path fill-rule="evenodd" clip-rule="evenodd" d="M33.406 22.6719C33.3356 22.6135 33.2652 22.5565 33.1943 22.5015C33.2585 22.5656 33.3285 22.6231 33.406 22.6719Z" fill="#00AEEF"/>
<path fill-rule="evenodd" clip-rule="evenodd" d="M31.0035 23.3523C31.0014 23.3519 31.0001 23.3515 30.998 23.3511C31.0001 23.3519 31.0022 23.3523 31.0043 23.3532L31.0035 23.3523Z" fill="black"/>
<path fill-rule="evenodd" clip-rule="evenodd" d="M33.7028 34.0639C33.3326 33.9335 32.9474 33.8313 32.5962 33.6627C29.7631 32.3021 28.2388 30.0761 28.0927 26.9999C28.0274 25.6247 28.9392 24.6595 30.2137 24.6104L30.2322 24.6041C30.3096 24.5917 30.3825 24.5662 30.449 24.5305C30.654 24.4203 30.7948 24.2101 30.7948 23.9662C30.7948 23.7239 30.6559 23.5148 30.4532 23.404C30.3636 23.3553 30.2628 23.3254 30.1543 23.3217C30.1466 23.3214 30.1393 23.3193 30.1316 23.3193C30.1166 23.3193 30.1024 23.3228 30.0877 23.3238C28.3819 23.4309 27.0083 24.653 26.7842 26.3127C26.2801 30.051 29.5294 34.5291 33.2877 35.2793C33.7159 35.3649 34.1031 35.342 34.2348 34.8609C34.3506 34.4386 34.0877 34.1996 33.7028 34.0639Z" fill="black"/>
<path fill-rule="evenodd" clip-rule="evenodd" d="M33.7224 26.1093C33.7161 26.0581 33.703 26.0095 33.6854 25.9625C33.5613 25.4847 33.3686 24.9253 33.0922 24.5463C33.0716 24.5137 33.048 24.4833 33.022 24.4548C33.0176 24.4494 33.0136 24.4431 33.0091 24.438C33.0082 24.4368 33.0066 24.4363 33.0054 24.4352C32.8833 24.3108 32.7124 24.2324 32.5223 24.2324C32.1523 24.2324 31.8516 24.5259 31.8516 24.8865C31.8516 24.9553 31.8654 25.02 31.8857 25.0822L31.8831 25.0848C31.8831 25.0848 31.8871 25.0932 31.8939 25.1084C31.9023 25.1311 31.9121 25.1529 31.9229 25.1741C31.9926 25.3355 32.1465 25.7153 32.3275 26.3025C32.3373 26.3628 32.3543 26.4206 32.3794 26.4744C32.4902 26.7138 32.7358 26.8813 33.022 26.8813C33.1452 26.8813 33.2591 26.8478 33.3599 26.7936C33.5783 26.6764 33.7282 26.4524 33.7282 26.1923C33.7282 26.1643 33.7259 26.1367 33.7224 26.1093Z" fill="black"/>
<path fill-rule="evenodd" clip-rule="evenodd" d="M26.5176 31.7729C26.5417 31.8134 26.5642 31.8542 26.5884 31.8946C26.5672 31.8525 26.5438 31.8121 26.5176 31.7729Z" fill="#E82227"/>
<path fill-rule="evenodd" clip-rule="evenodd" d="M25.3413 32.394C25.3726 32.4628 25.4105 32.5278 25.4546 32.5886C25.4296 32.5457 25.4051 32.5024 25.3826 32.4628C25.3792 32.457 25.363 32.4303 25.3413 32.394Z" fill="#E82227"/>
<path fill-rule="evenodd" clip-rule="evenodd" d="M28.7139 20.6743C28.6066 20.6743 28.4134 20.7452 28.4118 20.7452C25.6458 21.5552 23.7787 24.0479 23.8075 27.0709C23.8633 28.9618 24.694 31.2613 25.2442 32.2229C25.2697 32.2741 25.3142 32.349 25.3415 32.3943C25.3537 32.4147 25.3628 32.4294 25.3649 32.4327C25.3773 32.4551 25.3911 32.4792 25.4051 32.5035C25.5267 32.6721 25.7274 32.7835 25.9545 32.7835C26.0716 32.7835 26.1804 32.7514 26.2765 32.6997C26.4846 32.5882 26.6273 32.3749 26.6273 32.127C26.6273 32.0239 26.6013 31.9278 26.5573 31.841C26.5438 31.8183 26.5311 31.7954 26.5176 31.7727C25.5829 30.2139 25.1086 28.4934 25.1689 26.5875C25.2391 24.369 26.82 22.5734 28.8423 21.9699C28.8825 21.9624 28.9211 21.9505 28.9585 21.936C29.0184 21.9196 29.1957 21.808 29.2127 21.7613C29.3184 21.6457 29.3844 21.4951 29.3844 21.3284C29.3844 20.9678 29.0836 20.6743 28.7139 20.6743Z" fill="#00AC75"/>
<path fill-rule="evenodd" clip-rule="evenodd" d="M36.8805 31.7033C36.7893 31.6535 36.6868 31.6231 36.5762 31.6196H36.576C36.5381 31.6234 36.5004 31.6257 36.4628 31.629C33.589 31.8729 31.2542 29.9906 31.0051 27.1883C30.9621 26.7021 30.9778 26.1341 30.2942 26.1837C29.664 26.2298 29.6586 26.8483 29.6911 27.338C29.9009 30.5027 32.6281 32.9491 35.9343 32.9837C36.1492 32.9837 36.3669 32.9629 36.5846 32.9329C36.6274 32.9271 36.6702 32.9212 36.7132 32.9145C36.7705 32.9 36.8253 32.8787 36.8762 32.8511C37.0853 32.7391 37.2287 32.5246 37.2287 32.2758C37.2287 32.0291 37.0872 31.816 36.8805 31.7033Z" fill="black"/>
</g>
<path d="M52.0683 30.5V17.1128H54.4618V28.4868H60.5385V30.5H52.0683ZM66.5684 30.6948C63.6739 30.6948 61.8091 28.7651 61.8091 25.583V25.5645C61.8091 22.4102 63.7017 20.4619 66.5591 20.4619C69.4258 20.4619 71.3277 22.3916 71.3277 25.5645V25.583C71.3277 28.7744 69.4537 30.6948 66.5684 30.6948ZM66.5777 28.8301C68.0342 28.8301 68.9712 27.6426 68.9712 25.583V25.5645C68.9712 23.5142 68.0249 22.3359 66.5591 22.3359C65.1211 22.3359 64.1656 23.5234 64.1656 25.5645V25.583C64.1656 27.6519 65.1026 28.8301 66.5777 28.8301ZM77.6266 33.9419C75.0197 33.9419 73.3776 32.7544 73.0993 31.2144L73.0807 31.1309H75.3537L75.3815 31.2051C75.632 31.771 76.4206 32.1978 77.6266 32.1978C79.1296 32.1978 79.9552 31.3999 79.9552 30.1475V28.728H79.9088C79.3615 29.7764 78.2482 30.4443 76.838 30.4443C74.3703 30.4443 72.7838 28.5518 72.7838 25.4902V25.481C72.7838 22.373 74.3888 20.4619 76.8752 20.4619C78.2668 20.4619 79.3429 21.2041 79.8996 22.3359H79.9552V20.666H82.2653V30.2217C82.2653 32.4482 80.4748 33.9419 77.6266 33.9419ZM77.5617 28.6631C78.9997 28.6631 79.9645 27.4478 79.9645 25.5366V25.5273C79.9645 23.6255 78.9904 22.4102 77.5617 22.4102C76.0773 22.4102 75.1403 23.6069 75.1403 25.5181V25.5273C75.1403 27.4663 76.0773 28.6631 77.5617 28.6631ZM85.7625 19.2559C85.0388 19.2559 84.4729 18.6807 84.4729 17.9941C84.4729 17.2891 85.0388 16.7231 85.7625 16.7231C86.4861 16.7231 87.0428 17.2891 87.0428 17.9941C87.0428 18.6807 86.4861 19.2559 85.7625 19.2559ZM84.6028 30.5V20.666H86.9129V30.5H84.6028ZM89.2597 30.5V20.666H91.5697V22.2061H91.6161C92.1264 21.1484 93.1283 20.4619 94.622 20.4619C96.7836 20.4619 98.0175 21.8535 98.0175 24.1357V30.5H95.7074V24.5996C95.7074 23.1987 95.058 22.4102 93.7406 22.4102C92.414 22.4102 91.5697 23.375 91.5697 24.7944V30.5H89.2597ZM106.357 30.5L103.694 20.666H106.014L107.674 28.2178H107.721L109.641 20.666H111.859L113.779 28.2178H113.835L115.495 20.666H117.777L115.115 30.5H112.684L110.745 23.3101H110.699L108.769 30.5H106.357ZM120.532 19.2559C119.809 19.2559 119.243 18.6807 119.243 17.9941C119.243 17.2891 119.809 16.7231 120.532 16.7231C121.256 16.7231 121.813 17.2891 121.813 17.9941C121.813 18.6807 121.256 19.2559 120.532 19.2559ZM119.373 30.5V20.666H121.683V30.5H119.373ZM127.685 30.6948C125.625 30.6948 124.651 29.8599 124.651 27.8374V22.4473H123.26V20.666H124.651V18.1704H126.998V20.666H128.826V22.4473H126.998V27.6426C126.998 28.6074 127.425 28.9136 128.269 28.9136C128.492 28.9136 128.668 28.8857 128.826 28.8765V30.6113C128.557 30.6484 128.149 30.6948 127.685 30.6948ZM130.857 30.5V17.1128H133.167V22.3174H133.223C133.733 21.1392 134.782 20.4619 136.257 20.4619C138.372 20.4619 139.727 22.002 139.727 24.377V30.5H137.417V24.8315C137.417 23.3193 136.656 22.4102 135.329 22.4102C134.021 22.4102 133.167 23.4028 133.167 24.8315V30.5H130.857ZM151.898 30.7319C148.502 30.7319 146.387 28.7373 146.387 25.7778V17.1128H148.781V25.583C148.781 27.4385 149.912 28.6538 151.898 28.6538C153.883 28.6538 155.006 27.4385 155.006 25.583V17.1128H157.39V25.7778C157.39 28.7373 155.302 30.7319 151.898 30.7319ZM158.902 30.5L163.689 17.1128H166.379L171.166 30.5H168.652L167.52 27.0396H162.538L161.407 30.5H158.902ZM165.006 19.4971L163.141 25.1934H166.917L165.062 19.4971H165.006ZM172.975 30.5V17.1128H181.64V19.126H175.369V22.7349H181.297V24.6738H175.369V28.4868H181.64V30.5H172.975ZM188.282 30.5V17.1128H193.44C196.149 17.1128 197.995 18.9033 197.995 21.5845V21.603C197.995 24.2749 196.149 26.0747 193.44 26.0747H190.676V30.5H188.282ZM192.846 19.0703H190.676V24.145H192.846C194.563 24.145 195.565 23.2173 195.565 21.6123V21.5938C195.565 19.9888 194.563 19.0703 192.846 19.0703ZM198.032 30.5L202.819 17.1128H205.51L210.297 30.5H207.783L206.651 27.0396H201.669L200.537 30.5H198.032ZM204.137 19.4971L202.272 25.1934H206.048L204.192 19.4971H204.137ZM216.624 30.7319C213.553 30.7319 211.53 29.2847 211.373 26.8818L211.363 26.7427H213.655L213.673 26.854C213.85 28.0044 215.028 28.7188 216.707 28.7188C218.395 28.7188 219.453 27.9673 219.453 26.8169V26.8076C219.453 25.8057 218.757 25.2676 217.032 24.9058L215.594 24.6089C212.959 24.0615 211.66 22.8369 211.66 20.8423V20.833C211.669 18.4766 213.738 16.8809 216.624 16.8809C219.546 16.8809 221.457 18.4209 221.596 20.7124L221.605 20.8701H219.314L219.295 20.7588C219.138 19.5898 218.108 18.894 216.605 18.894C215.037 18.9033 214.063 19.6362 214.063 20.7031V20.7124C214.063 21.6587 214.796 22.2153 216.41 22.5493L217.857 22.8462C220.641 23.4214 221.856 24.5532 221.856 26.6406V26.6499C221.856 29.1455 219.889 30.7319 216.624 30.7319ZM228.73 30.7319C225.659 30.7319 223.637 29.2847 223.479 26.8818L223.47 26.7427H225.761L225.78 26.854C225.956 28.0044 227.134 28.7188 228.814 28.7188C230.502 28.7188 231.56 27.9673 231.56 26.8169V26.8076C231.56 25.8057 230.864 25.2676 229.138 24.9058L227.7 24.6089C225.066 24.0615 223.767 22.8369 223.767 20.8423V20.833C223.776 18.4766 225.845 16.8809 228.73 16.8809C231.652 16.8809 233.564 18.4209 233.703 20.7124L233.712 20.8701H231.42L231.402 20.7588C231.244 19.5898 230.214 18.894 228.712 18.894C227.144 18.9033 226.17 19.6362 226.17 20.7031V20.7124C226.17 21.6587 226.902 22.2153 228.517 22.5493L229.964 22.8462C232.747 23.4214 233.962 24.5532 233.962 26.6406V26.6499C233.962 29.1455 231.996 30.7319 228.73 30.7319Z" fill="black"/>
</g>
<defs>
<filter id="filter0_ddd_2803_9908" x="0" y="0" width="252.732" height="50" filterUnits="userSpaceOnUse" color-interpolation-filters="sRGB">
<feFlood flood-opacity="0" result="BackgroundImageFix"/>
<feColorMatrix in="SourceAlpha" type="matrix" values="0 0 0 0 0 0 0 0 0 0 0 0 0 0 0 0 0 0 127 0" result="hardAlpha"/>
<feMorphology radius="2" operator="dilate" in="SourceAlpha" result="effect1_dropShadow_2803_9908"/>
<feOffset/>
<feComposite in2="hardAlpha" operator="out"/>
<feColorMatrix type="matrix" values="0 0 0 0 0 0 0 0 0 0.67451 0 0 0 0 0.458824 0 0 0 0.3 0"/>
<feBlend mode="normal" in2="BackgroundImageFix" result="effect1_dropShadow_2803_9908"/>
<feColorMatrix in="SourceAlpha" type="matrix" values="0 0 0 0 0 0 0 0 0 0 0 0 0 0 0 0 0 0 127 0" result="hardAlpha"/>
<feOffset dy="2"/>
<feGaussianBlur stdDeviation="1"/>
<feColorMatrix type="matrix" values="0 0 0 0 0 0 0 0 0 0 0 0 0 0 0 0 0 0 0.12 0"/>
<feBlend mode="normal" in2="effect1_dropShadow_2803_9908" result="effect2_dropShadow_2803_9908"/>
<feColorMatrix in="SourceAlpha" type="matrix" values="0 0 0 0 0 0 0 0 0 0 0 0 0 0 0 0 0 0 127 0" result="hardAlpha"/>
<feOffset/>
<feGaussianBlur stdDeviation="1"/>
<feColorMatrix type="matrix" values="0 0 0 0 0 0 0 0 0 0 0 0 0 0 0 0 0 0 0.12 0"/>
<feBlend mode="normal" in2="effect2_dropShadow_2803_9908" result="effect3_dropShadow_2803_9908"/>
<feBlend mode="normal" in="SourceGraphic" in2="effect3_dropShadow_2803_9908" result="shape"/>
</filter>
<clipPath id="clip0_2803_9908">
<rect width="24.7325" height="24.2285" fill="white" transform="translate(18 11.8857)"/>
</clipPath>
</defs>
</svg>
